<?xml version="1.0" encoding="UTF-8" standalone="no" ?>
<!DOCTYPE svg PUBLIC "-//W3C//DTD SVG 1.1//EN" "http://www.w3.org/Graphics/SVG/1.1/DTD/svg11.dtd">
<svg xmlns="http://www.w3.org/2000/svg" xmlns:xlink="http://www.w3.org/1999/xlink" version="1.1" width="400" height="400" viewBox="0 0 400 400" xml:space="preserve">
<desc>Created with Fabric.js 3.6.2</desc>
<defs>
</defs>
<g transform="matrix(0.39 0 0 0.39 200 200)"  >
<path style="stroke: none; stroke-width: 1; stroke-dasharray: none; stroke-linecap: butt; stroke-dashoffset: 0; stroke-linejoin: miter; stroke-miterlimit: 4; fill: rgb(246,118,13); fill-rule: evenodd; opacity: 1;"  transform=" translate(-256, -256)" d="M 256 174.548 C 309.821 174.548 353.453 218.179 353.453 272.001 C 353.453 325.822 309.821 369.453 256 369.453 C 202.178 369.453 158.547 325.822 158.547 272.001 C 158.547 218.179 202.178 174.548 256 174.548 Z M 256 336.989 C 291.892 336.989 320.989 307.893 320.989 272.001 C 320.989 236.108 291.892 207.011 256 207.011 C 220.108 207.011 191.011 236.108 191.011 272.001 C 191.011 307.893 220.108 336.989 256 336.989 Z M 416 512 L 96 512 C 42.981 512 0 469.02 0 416 L 0 96 C 0 67.68 12.494 42.486 32 24.915 L 32 160.001 L 32 176.001 L 32 416 C 32 451.347 60.654 480 96 480 L 416 480 C 451.346 480 480 451.347 480 416 L 480 160.001 L 344.314 160.001 C 321.054 138.592 290.104 125.411 256 125.411 C 221.896 125.411 190.945 138.592 167.686 160.001 L 128 160.001 L 128 0 L 416 0 C 469.019 0 512 42.981 512 96 L 512 112 L 512 160.001 L 512 416 C 512 469.02 469.019 512 416 512 Z M 464 80 C 464 62.327 449.673 48 432 48 L 400 48 C 382.327 48 368 62.327 368 80 L 368 96 C 368 113.673 382.327 128 400 128 L 432 128 C 449.673 128 464 113.673 464 96 L 464 80 Z M 64 5.878 C 74.054 2.304 84.719 0 96 0 L 96 160.001 L 64 160.001 L 64 5.878 Z" stroke-linecap="round" />
</g>
</svg>