<?xml version="1.0" encoding="UTF-8" standalone="no" ?>
<!DOCTYPE svg PUBLIC "-//W3C//DTD SVG 1.1//EN" "http://www.w3.org/Graphics/SVG/1.1/DTD/svg11.dtd">
<svg xmlns="http://www.w3.org/2000/svg" xmlns:xlink="http://www.w3.org/1999/xlink" version="1.1" width="400" height="400" viewBox="0 0 400 400" xml:space="preserve">
<desc>Created with Fabric.js 3.6.2</desc>
<defs>
</defs>
<g transform="matrix(1.56 0 0 1.56 200 200)" id="Layer_1"  >
<circle style="stroke: none; stroke-width: 1; stroke-dasharray: none; stroke-linecap: butt; stroke-dashoffset: 0; stroke-linejoin: miter; stroke-miterlimit: 4; fill: rgb(38,124,181); fill-rule: nonzero; opacity: 1;"  cx="0" cy="0" r="64" />
</g>
<g transform="matrix(1.56 0 0 1.56 200 143.75)" id="Layer_1"  >
<path style="stroke: none; stroke-width: 1; stroke-dasharray: none; stroke-linecap: butt; stroke-dashoffset: 0; stroke-linejoin: miter; stroke-miterlimit: 4; fill: rgb(255,255,255); fill-rule: nonzero; opacity: 1;"  transform=" translate(-64, -28)" d="M 64 28" stroke-linecap="round" />
</g>
<g transform="matrix(1.56 0 0 1.56 200 187.03)" id="Layer_1"  >
<path style="stroke: none; stroke-width: 1; stroke-dasharray: none; stroke-linecap: butt; stroke-dashoffset: 0; stroke-linejoin: miter; stroke-miterlimit: 4; fill: rgb(255,255,255); fill-rule: nonzero; opacity: 1;"  transform=" translate(-64, -55.7)" d="M 64 72.4 l 38.2 -32.7 c -0.6 -0.4 -1.4 -0.7 -2.2 -0.7 H 28 c -0.8 0 -1.6 0.3 -2.2 0.7 L 64 72.4 z" stroke-linecap="round" />
</g>
<g transform="matrix(1.56 0 0 1.56 200 203.44)" id="Layer_1"  >
<path style="stroke: none; stroke-width: 1; stroke-dasharray: none; stroke-linecap: butt; stroke-dashoffset: 0; stroke-linejoin: miter; stroke-miterlimit: 4; fill: rgb(255,255,255); fill-rule: nonzero; opacity: 1;"  transform=" translate(-64, -66.2)" d="M 66.6 75.4 c -1.5 1.3 -3.7 1.3 -5.2 0 L 24 43.5 V 85 c 0 2.2 1.8 4 4 4 h 72 c 2.2 0 4 -1.8 4 -4 V 43.4 L 66.6 75.4 z" stroke-linecap="round" />
</g>
</svg>