<?xml version="1.0" encoding="UTF-8" standalone="no" ?>
<!DOCTYPE svg PUBLIC "-//W3C//DTD SVG 1.1//EN" "http://www.w3.org/Graphics/SVG/1.1/DTD/svg11.dtd">
<svg xmlns="http://www.w3.org/2000/svg" xmlns:xlink="http://www.w3.org/1999/xlink" version="1.1" width="400" height="400" viewBox="0 0 400 400" xml:space="preserve">
<desc>Created with Fabric.js 3.6.2</desc>
<defs>
</defs>
<g transform="matrix(2.88 0 0 2.88 199.99 199.99)" id="Layer_1-2"  >
<linearGradient id="SVGID_linear-gradient_1" gradientUnits="userSpaceOnUse" gradientTransform="matrix(1 0 0 1 -34.72 -34.72)"  x1="48.41" y1="2.8" x2="21.04" y2="66.65">
<stop offset="0%" style="stop-color:rgb(107,171,222);stop-opacity: 1"/>
<stop offset="100%" style="stop-color:rgb(88,148,196);stop-opacity: 1"/>
</linearGradient>
<circle style="stroke: none; stroke-width: 1; stroke-dasharray: none; stroke-linecap: butt; stroke-dashoffset: 0; stroke-linejoin: miter; stroke-miterlimit: 4; fill: url(#SVGID_linear-gradient_1); fill-rule: nonzero; opacity: 1;"  cx="0" cy="0" r="34.72" />
</g>
<g transform="matrix(2.88 0 0 2.88 199.89 200.11)" id="Het1PX.tif"  >
<path style="stroke: none; stroke-width: 1; stroke-dasharray: none; stroke-linecap: butt; stroke-dashoffset: 0; stroke-linejoin: miter; stroke-miterlimit: 4; fill: rgb(253,253,253); fill-rule: nonzero; opacity: 1;"  transform=" translate(-34.69, -34.76)" d="M 55.81 19.27 a 27.28 27.28 0 0 1 -0.62 3.23 L 49.37 50 a 4.57 4.57 0 0 1 -0.52 1.52 a 1.69 1.69 0 0 1 -2 0.86 a 4 4 0 0 1 -1.49 -0.72 c -2.93 -2.18 -5.87 -4.33 -8.79 -6.52 a 0.57 0.57 0 0 0 -0.9 0.06 c -1.44 1.44 -2.91 2.84 -4.35 4.26 a 2.57 2.57 0 0 1 -2 0.85 a 1 1 0 0 1 -1.06 -0.8 c -0.9 -2.82 -1.82 -5.63 -2.74 -8.45 c -0.31 -1 -0.63 -1.91 -0.92 -2.87 a 0.84 0.84 0 0 0 -0.64 -0.63 c -2.86 -0.88 -5.72 -1.78 -8.59 -2.68 a 4.48 4.48 0 0 1 -1.09 -0.45 a 1 1 0 0 1 -0.17 -1.85 a 5.15 5.15 0 0 1 1.68 -0.94 l 11.71 -4.52 l 25.29 -9.75 l 0.2 -0.08 C 54.59 16.65 55.8 17.48 55.81 19.27 Z M 29.36 47.57 c 0.16 -0.08 0.14 -0.18 0.15 -0.26 c 0.19 -2.06 0.39 -4.11 0.56 -6.17 a 1.72 1.72 0 0 1 0.6 -1.25 Q 38.9 32.5 47.12 25.06 c 0.35 -0.31 0.7 -0.62 1 -0.94 c 0.14 -0.14 0.32 -0.29 0.21 -0.51 s -0.35 -0.22 -0.57 -0.19 a 2.75 2.75 0 0 0 -1.13 0.47 Q 36.53 30.3 26.38 36.68 a 0.62 0.62 0 0 0 -0.3 0.87 c 0.84 2.51 1.65 5 2.47 7.53 Q 29 46.31 29.36 47.57 Z" stroke-linecap="round" />
</g>
</svg>